<?xml version="1.0" encoding="UTF-8"?>
<svg width="10px" height="6px" viewBox="0 0 10 6" version="1.1" xmlns="http://www.w3.org/2000/svg" xmlns:xlink="http://www.w3.org/1999/xlink">
    <!-- Generator: Sketch 43.2 (39069) - http://www.bohemiancoding.com/sketch -->
    <title>Arrow-down - simple-line-icons</title>
    <desc>Created with Sketch.</desc>
    <defs></defs>
    <g id="Design" stroke="none" stroke-width="1" fill="none" fill-rule="evenodd">
        <g id="Desktop-HD" transform="translate(-1380.000000, -29.000000)" fill="#6C757F">
            <g id="header">
                <g id="account" transform="translate(1308.000000, 16.000000)">
                    <path d="M72.078125,13.3105469 C72.078125,13.2714842 72.0862629,13.2307945 72.1025391,13.1884766 C72.1188152,13.1461586 72.143229,13.1087241 72.1757812,13.0761719 C72.2408857,13.0175778 72.31901,12.9882812 72.4101562,12.9882812 C72.5013025,12.9882812 72.5794268,13.0175778 72.6445312,13.0761719 L77.0585938,17.4902344 L81.4042969,13.1445312 C81.4694014,13.0794268 81.5475256,13.046875 81.6386719,13.046875 C81.7298182,13.046875 81.8079424,13.0794268 81.8730469,13.1445312 C81.9381514,13.2096357 81.9707031,13.28776 81.9707031,13.3789062 C81.9707031,13.4700525 81.9381514,13.5481768 81.8730469,13.6132812 L77.2929688,18.1933594 C77.2278643,18.2584639 77.14974,18.2910156 77.0585938,18.2910156 C76.9674475,18.2910156 76.8893232,18.2584639 76.8242188,18.1933594 L72.1757812,13.5546875 C72.143229,13.5221353 72.1188152,13.4847007 72.1025391,13.4423828 C72.0862629,13.4000649 72.078125,13.35612 72.078125,13.3105469 Z" id="Arrow-down---simple-line-icons"></path>
                </g>
            </g>
        </g>
    </g>
</svg>