<?xml version="1.0" encoding="UTF-8"?>
<svg width="13px" height="13px" viewBox="0 0 13 13" version="1.1" xmlns="http://www.w3.org/2000/svg" xmlns:xlink="http://www.w3.org/1999/xlink">
    <!-- Generator: Sketch 43.2 (39069) - http://www.bohemiancoding.com/sketch -->
    <title>search icon</title>
    <desc>Created with Sketch.</desc>
    <defs></defs>
    <g id="Design" stroke="none" stroke-width="1" fill="none" fill-rule="evenodd">
        <g id="Desktop-HD" transform="translate(-1080.000000, -26.000000)" fill="#6C757F">
            <g id="header">
                <path d="M1092.89453,38.1054688 C1092.96484,38.1757816 1093,38.2636713 1093,38.3691406 C1093,38.4746099 1092.96484,38.5624996 1092.89453,38.6328125 C1092.81641,38.7109379 1092.72656,38.75 1092.625,38.75 C1092.52344,38.75 1092.43359,38.7109379 1092.35547,38.6328125 L1088.72266,34.9765625 C1088.30859,35.3359393 1087.83985,35.6171865 1087.31641,35.8203125 C1086.79297,36.0234385 1086.23828,36.125 1085.65234,36.125 C1085.0039,36.125 1084.39453,36.0019544 1083.82422,35.7558594 C1083.2539,35.5097644 1082.75586,35.1757834 1082.33008,34.7539062 C1081.90429,34.3320291 1081.57031,33.8359404 1081.32812,33.265625 C1081.08594,32.6953096 1080.96484,32.0859407 1080.96484,31.4375 C1080.96484,30.7890593 1081.08594,30.1796904 1081.32812,29.609375 C1081.57031,29.0390596 1081.90429,28.5429709 1082.33008,28.1210938 C1082.75586,27.6992166 1083.2539,27.3652356 1083.82422,27.1191406 C1084.39453,26.8730456 1085.0039,26.75 1085.65234,26.75 C1086.29297,26.75 1086.89843,26.8730456 1087.46875,27.1191406 C1088.03907,27.3652356 1088.53711,27.6992166 1088.96289,28.1210938 C1089.38867,28.5429709 1089.72461,29.0390596 1089.9707,29.609375 C1090.2168,30.1796904 1090.33984,30.7890593 1090.33984,31.4375 C1090.33984,32.0078154 1090.24219,32.5488256 1090.04688,33.0605469 C1089.85156,33.5722682 1089.58594,34.031248 1089.25,34.4375 L1092.89453,38.1054688 Z M1085.65234,35.3867188 C1086.19141,35.3867188 1086.70117,35.2832042 1087.18164,35.0761719 C1087.66211,34.8691396 1088.08008,34.5859393 1088.43555,34.2265625 C1088.79102,33.8671857 1089.07226,33.4492211 1089.2793,32.9726562 C1089.48633,32.4960914 1089.58984,31.9843777 1089.58984,31.4375 C1089.58984,30.8906223 1089.48633,30.3789086 1089.2793,29.9023438 C1089.07226,29.4257789 1088.79102,29.0078143 1088.43555,28.6484375 C1088.08008,28.2890607 1087.66211,28.0058604 1087.18164,27.7988281 C1086.70117,27.5917958 1086.19141,27.4882812 1085.65234,27.4882812 C1085.10547,27.4882812 1084.5918,27.5917958 1084.11133,27.7988281 C1083.63086,28.0058604 1083.21289,28.2890607 1082.85742,28.6484375 C1082.50195,29.0078143 1082.2207,29.4257789 1082.01367,29.9023438 C1081.80664,30.3789086 1081.70312,30.8906223 1081.70312,31.4375 C1081.70312,31.9843777 1081.80664,32.4960914 1082.01367,32.9726562 C1082.2207,33.4492211 1082.50195,33.8671857 1082.85742,34.2265625 C1083.21289,34.5859393 1083.63086,34.8691396 1084.11133,35.0761719 C1084.5918,35.2832042 1085.10547,35.3867188 1085.65234,35.3867188 Z" id="search-icon"></path>
            </g>
        </g>
    </g>
</svg>