<?xml version="1.0" encoding="UTF-8"?>
<svg width="129px" height="26px" viewBox="0 0 129 26" version="1.1" xmlns="http://www.w3.org/2000/svg" xmlns:xlink="http://www.w3.org/1999/xlink">
    <!-- Generator: Sketch 43.2 (39069) - http://www.bohemiancoding.com/sketch -->
    <title>logo</title>
    <desc>Created with Sketch.</desc>
    <defs></defs>
    <g id="Design" stroke="none" stroke-width="1" fill="none" fill-rule="evenodd">
        <g id="Desktop-HD" transform="translate(-59.000000, -18.000000)">
            <g id="header">
                <g id="logo" transform="translate(59.000000, 18.000000)">
                    <g id="mark" fill-rule="nonzero">
                        <path d="M2.22857143,13 C2.22857143,18.9498873 7.05051716,23.7714286 13,23.7714286 C18.9498873,23.7714286 23.7714286,18.9494828 23.7714286,13 C23.7714286,7.05011271 18.9494828,2.22857143 13,2.22857143 C7.05011271,2.22857143 2.22857143,7.05051716 2.22857143,13 Z M0,13 C0,5.82029825 5.81871963,0 13,0 C20.1797017,0 26,5.81871963 26,13 C26,20.1797017 20.1812804,26 13,26 C5.82029825,26 0,20.1812804 0,13 Z" id="Rectangle-2" fill="#6C757F"></path>
                        <path d="M4.82408939,15.0969681 C5.20307778,15.6508742 5.89444902,16.4311265 6.89465068,17.2065734 C8.57428711,18.5087795 10.5476477,19.2977778 12.7867961,19.2977778 C15.0259445,19.2977778 16.9993051,18.5087795 18.6789415,17.2065734 C19.2605342,16.7556701 19.7659784,16.2731862 20.1953844,15.7885768 C20.3477048,15.6166744 20.4804776,15.4555366 20.593611,15.3087491 C20.6347486,15.2553742 20.6708976,15.2069729 20.7020412,15.1639918 C20.7359712,15.116632 20.7359712,15.116632 20.7495028,15.0969681 C21.1098817,14.5702605 20.9750456,13.8511349 20.4483381,13.4907561 C19.9216305,13.1303772 19.2025049,13.2652133 18.842126,13.7919208 C18.8126562,13.8326798 18.7901455,13.8628202 18.763095,13.8979175 C18.6814052,14.0039078 18.5820929,14.1244368 18.4656337,14.2558677 C18.1270978,14.6379249 17.7246327,15.0221077 17.2628889,15.3800933 C15.9615638,16.3889982 14.4667376,16.9866667 12.7867961,16.9866667 C11.1068546,16.9866667 9.61202839,16.3889982 8.31070332,15.3800933 C7.84895949,15.0221077 7.44649435,14.6379249 7.1079585,14.2558677 C6.91117215,14.0337829 6.78448429,13.8694088 6.73146617,13.7919208 C6.37108732,13.2652133 5.6519617,13.1303772 5.12525414,13.4907561 C4.59854659,13.8511349 4.46371053,14.5702605 4.82408939,15.0969681 Z" id="Line" fill="#6C6C6C"></path>
                    </g>
                    <path d="M35.2,22 L37.554,5.28 L41.272,5.28 L43.604,22 L40.964,22 L40.502,18.238 L38.302,18.238 L37.862,22 L35.2,22 Z M38.61,15.774 L40.216,15.774 L39.402,9.262 L38.61,15.774 Z M47.036,22 L49.676,22 L49.676,13.882 L51.282,18.436 L51.986,18.436 L53.592,13.882 L53.592,22 L56.232,22 L56.232,5.28 L54.054,5.28 L51.634,12.144 L49.214,5.28 L47.036,5.28 L47.036,22 Z M60.984,22 L60.984,5.28 L64.614,5.28 C66.792,5.28 68.244,6.732 68.244,8.91 L68.244,11 C68.244,12.1 67.87,13.002 67.232,13.64 C67.87,14.278 68.244,15.18 68.244,16.28 L68.244,18.37 C68.244,20.57 66.814,22 64.614,22 L60.984,22 Z M63.624,12.408 L64.614,12.408 C65.208,12.408 65.604,12.012 65.604,11.418 L65.604,8.734 C65.604,8.14 65.208,7.744 64.614,7.744 L63.624,7.744 L63.624,12.408 Z M63.624,19.536 L64.614,19.536 C65.208,19.536 65.604,19.14 65.604,18.546 L65.604,15.862 C65.604,15.268 65.208,14.872 64.614,14.872 L63.624,14.872 L63.624,19.536 Z M72.666,22 L75.306,22 L75.306,5.28 L72.666,5.28 L72.666,22 Z M81.818,22 L84.458,22 L84.458,7.744 L87.428,7.744 L87.428,5.28 L78.848,5.28 L78.848,7.744 L81.818,7.744 L81.818,22 Z M90.97,22 L93.61,22 L93.61,5.28 L90.97,5.28 L90.97,22 Z M101.772,22.33 C99.594,22.33 98.142,20.878 98.142,18.7 L98.142,8.58 C98.142,6.38 99.572,4.95 101.772,4.95 C103.95,4.95 105.402,6.402 105.402,8.58 L105.402,18.7 C105.402,20.9 103.972,22.33 101.772,22.33 Z M101.772,19.866 C102.366,19.866 102.762,19.47 102.762,18.876 L102.762,8.404 C102.762,7.81 102.366,7.414 101.772,7.414 C101.178,7.414 100.782,7.81 100.782,8.404 L100.782,18.876 C100.782,19.47 101.178,19.866 101.772,19.866 Z M113.234,22.33 C115.434,22.33 116.864,20.9 116.864,18.7 L116.864,5.28 L114.224,5.28 L114.224,18.876 C114.224,19.47 113.828,19.866 113.234,19.866 C112.64,19.866 112.244,19.47 112.244,18.876 L112.244,5.28 L109.604,5.28 L109.604,18.7 C109.604,20.878 111.056,22.33 113.234,22.33 Z M124.806,22.33 C127.006,22.33 128.436,20.9 128.436,18.7 L128.436,17.38 C128.436,13.31 123.816,12.408 123.816,9.68 L123.816,8.404 C123.816,7.81 124.212,7.414 124.806,7.414 C125.4,7.414 125.796,7.81 125.796,8.404 L125.796,10.56 L128.436,10.56 L128.436,8.58 C128.436,6.402 126.984,4.95 124.806,4.95 C122.606,4.95 121.176,6.38 121.176,8.58 L121.176,9.9 C121.176,13.97 125.796,14.85 125.796,17.6 L125.796,18.876 C125.796,19.47 125.4,19.866 124.806,19.866 C124.212,19.866 123.816,19.47 123.816,18.876 L123.816,16.72 L121.176,16.72 L121.176,18.7 C121.176,20.878 122.628,22.33 124.806,22.33 Z" id="ambitious" fill="#6C757F"></path>
                </g>
            </g>
        </g>
    </g>
</svg>